<?xml version="1.0" encoding="UTF-8" standalone="no"?>
<svg
   xmlns:dc="http://purl.org/dc/elements/1.1/"
   xmlns:cc="http://creativecommons.org/ns#"
   xmlns:rdf="http://www.w3.org/1999/02/22-rdf-syntax-ns#"
   xmlns:svg="http://www.w3.org/2000/svg"
   xmlns="http://www.w3.org/2000/svg"
   xmlns:sodipodi="http://sodipodi.sourceforge.net/DTD/sodipodi-0.dtd"
   xmlns:inkscape="http://www.inkscape.org/namespaces/inkscape"
   width="5.0000005mm"
   height="5mm"
   viewBox="0 0 5.0000005 5"
   version="1.1"
   id="svg8"
   inkscape:version="1.0.2-2 (e86c870879, 2021-01-15)"
   sodipodi:docname="question3.svg">
  <defs
     id="defs2" />
  <sodipodi:namedview
     id="base"
     pagecolor="#ffffff"
     bordercolor="#666666"
     borderopacity="1.0"
     inkscape:pageopacity="0.0"
     inkscape:pageshadow="2"
     inkscape:zoom="7.9195959"
     inkscape:cx="19.817407"
     inkscape:cy="13.273236"
     inkscape:document-units="mm"
     inkscape:current-layer="layer1"
     inkscape:document-rotation="0"
     showgrid="false"
     fit-margin-top="0"
     fit-margin-left="0"
     fit-margin-right="0"
     fit-margin-bottom="0"
     inkscape:window-width="1255"
     inkscape:window-height="865"
     inkscape:window-x="426"
     inkscape:window-y="114"
     inkscape:window-maximized="0" />
  <metadata
     id="metadata5">
    <rdf:RDF>
      <cc:Work
         rdf:about="">
        <dc:format>image/svg+xml</dc:format>
        <dc:type
           rdf:resource="http://purl.org/dc/dcmitype/StillImage" />
        <dc:title></dc:title>
      </cc:Work>
    </rdf:RDF>
  </metadata>
  <g
     inkscape:label="图层 1"
     inkscape:groupmode="layer"
     id="layer1"
     transform="translate(-102.57738,-101.82143)">
    <g
       id="g871">
      <path
         id="path861"
         style="fill:#808080;stroke:none;stroke-width:0.0311053;stroke-linejoin:round;stroke-dasharray:0.0622105, 0.03110530000000000"
         d="m 107.19416,105.65157 a 2.5,2.5 0 0 1 -3.44599,0.78721 2.5,2.5 0 0 1 -0.78873,-3.44563 2.5,2.5 0 0 1 3.4453,-0.79024 2.5,2.5 0 0 1 0.79175,3.44494" />
      <g
         id="g985"
         transform="matrix(0.1,0,0,0.1,101.06183,87.802096)"
         style="fill:#ffffff;fill-opacity:1">
        <path
           style="fill:#ffffff;fill-opacity:1;stroke:none;stroke-width:0.401665;stroke-linecap:butt;stroke-linejoin:miter;stroke-miterlimit:4;stroke-dasharray:none;stroke-opacity:1"
           d="m 31.90598,161.45419 -5.8333,-4.79682 c 0.2814,-1.11056 0.8405,-2.12823 2.48442,-4.31856 5.18485,-6.83769 15.92878,-5.6369 20.12361,-0.2662 4.52399,5.79209 0.92119,10.93711 -1.51317,13.03389 -1.19818,1.00495 -1.62266,2.13493 -1.79294,3.44264 -0.15555,1.19457 -0.2768,4.30405 -0.2768,4.30405 l -6.97468,0.004 c -0.015,-1.97478 0.02,-5.07864 0.4444,-7.57063 0.1025,-0.60169 0.2209,-1.2196 0.50393,-1.76037 0.60476,-1.15541 1.46211,-1.21873 2.47703,-3.02833 2.4559,-4.37888 -3.34464,-6.31175 -6.29886,-3.39255 -1.42601,1.4091 -1.48254,1.33048 -3.34365,4.32878 z"
           id="path1033"
           sodipodi:nodetypes="cccscsccaasscc" />
        <path
           id="rect1045"
           style="fill:#ffffff;fill-opacity:1;stroke:none;stroke-width:0.46005;stroke-linejoin:round;stroke-miterlimit:4;stroke-dasharray:none;stroke-dashoffset:0;stroke-opacity:1"
           d="m 38.760356,174.57668 h 5.781627 c 0.995743,0 1.79737,0.80162 1.79737,1.79737 v 5.53049 c 0,0.99574 -0.801627,1.79737 -1.79737,1.79737 h -5.781627 c -0.995743,0 -1.79737,-0.80163 -1.79737,-1.79737 v -5.53049 c 0,-0.99575 0.801627,-1.79737 1.79737,-1.79737 z" />
      </g>
    </g>
  </g>
</svg>
